<svg width="56" height="70" viewBox="0 0 56 70" fill="none" xmlns="http://www.w3.org/2000/svg">
<path d="M0 59.5V52.5H7V28C7 23.1583 8.45833 18.8557 11.375 15.092C14.2917 11.3307 18.0833 8.86667 22.75 7.7V5.25C22.75 3.79167 23.261 2.55267 24.283 1.533C25.3027 0.511 26.5417 0 28 0C29.4583 0 30.6973 0.511 31.717 1.533C32.739 2.55267 33.25 3.79167 33.25 5.25V7.7C37.9167 8.86667 41.7083 11.3307 44.625 15.092C47.5417 18.8557 49 23.1583 49 28V52.5H56V59.5H0ZM28 70C26.075 70 24.4277 69.3152 23.058 67.9455C21.686 66.5735 21 64.925 21 63H35C35 64.925 34.3152 66.5735 32.9455 67.9455C31.5735 69.3152 29.925 70 28 70Z" fill="#CFCFCF"/>
</svg>
