<svg width="80" height="80" viewBox="0 0 80 80" fill="none" xmlns="http://www.w3.org/2000/svg">
<path d="M0 80V61.3953L19.699 41.6963L2.73598 24.6238C1.86047 23.7483 1.2228 22.7633 0.822982 21.6689C0.420246 20.5746 0.218878 19.4802 0.218878 18.3858C0.218878 17.2914 0.420246 16.216 0.822982 15.1595C1.2228 14.1001 1.86047 13.1327 2.73598 12.2572L11.0534 3.93981C11.9289 3.0643 12.9138 2.42517 14.0082 2.02244C15.1026 1.62262 16.197 1.42271 17.2914 1.42271C18.3858 1.42271 19.4627 1.62262 20.522 2.02244C21.5785 2.42517 22.5445 3.0643 23.42 3.93981L40.4925 21.0123L60.0821 1.31327C60.5198 0.875514 60.9941 0.547196 61.5048 0.328318C62.0155 0.109439 62.5627 0 63.1464 0C63.73 0 64.2948 0.109439 64.8405 0.328318C65.3891 0.547196 65.8823 0.875514 66.3201 1.31327L78.6867 13.6799C79.1245 14.1176 79.4528 14.5919 79.6717 15.1026C79.8906 15.6133 80 16.1605 80 16.7442C80 17.3279 79.8906 17.894 79.6717 18.4427C79.4528 18.9884 79.1245 19.4802 78.6867 19.9179L59.0971 39.5075L76.0602 56.58C76.9357 57.4555 77.5734 58.4405 77.9732 59.5349C78.3759 60.6293 78.5773 61.7237 78.5773 62.8181C78.5773 63.9124 78.3759 64.9879 77.9732 66.0443C77.5734 67.1037 76.9357 68.0711 76.0602 68.9466L67.7428 77.264C66.8673 78.1395 65.8999 78.7772 64.8405 79.177C63.784 79.5798 62.7086 79.7811 61.6142 79.7811C60.5198 79.7811 59.4254 79.5798 58.3311 79.177C57.2367 78.7772 56.2517 78.1395 55.3762 77.264L38.3037 60.1915L18.6047 80H0ZM25.9371 35.4583L34.2544 27.1409L29.0014 21.8878L23.7483 27.0315L17.6197 20.9029L22.7633 15.6498L17.1819 10.1778L8.97401 18.4952L25.9371 35.4583ZM61.5048 71.026L69.8222 62.7086L64.2408 57.2367L59.0971 62.3803L52.8591 56.2517L58.1122 50.9986L52.7497 45.7456L44.4323 54.0629L61.5048 71.026ZM8.75513 71.2449H14.8837L57.0178 29.2202L50.7798 22.9822L8.75513 65.1163V71.2449ZM63.1464 22.9822L69.3844 16.7442L63.1464 10.6156L57.0178 16.7442L63.1464 22.9822Z" fill="#CFCFCF"/>
</svg>
