<svg width="59" height="70" viewBox="0 0 59 70" fill="none" xmlns="http://www.w3.org/2000/svg">
<path d="M55.3953 61.9124C54.472 61.9124 53.6987 61.5996 53.0752 60.9739C52.4496 60.3505 52.1367 59.5771 52.1367 58.6538V6.51709H13.0342C12.1109 6.51709 11.3365 6.20427 10.7108 5.57863C10.0874 4.95516 9.77564 4.1818 9.77564 3.25855C9.77564 2.33529 10.0874 1.56084 10.7108 0.935203C11.3365 0.311734 12.1109 0 13.0342 0H52.1367C53.929 0 55.4637 0.637589 56.7411 1.91277C58.0163 3.19012 58.6538 4.72489 58.6538 6.51709V58.6538C58.6538 59.5771 58.341 60.3505 57.7154 60.9739C57.0919 61.5996 56.3186 61.9124 55.3953 61.9124ZM4.56197 69.7329C3.47578 70.1674 2.44391 70.0718 1.46635 69.4462C0.488782 68.8227 0 67.9136 0 66.7188V19.5513C0 17.7591 0.637589 16.2254 1.91277 14.9502C3.19012 13.6729 4.72489 13.0342 6.51709 13.0342H39.1026C40.8948 13.0342 42.4295 13.6729 43.7069 14.9502C44.9821 16.2254 45.6197 17.7591 45.6197 19.5513V66.7188C45.6197 67.9136 45.1309 68.8227 44.1533 69.4462C43.1757 70.0718 42.1439 70.1674 41.0577 69.7329L22.8098 61.9124L4.56197 69.7329Z" fill="#CFCFCF"/>
</svg>
