<svg width="85" height="60" viewBox="0 0 85 60" fill="none" xmlns="http://www.w3.org/2000/svg">
<path d="M4.25 60C3.04583 60 2.03717 59.52 1.224 58.56C0.408 57.6033 0 56.4167 0 55C0 53.5833 0.408 52.3967 1.224 51.44C2.03717 50.48 3.04583 50 4.25 50H80.75C81.9542 50 82.9628 50.48 83.776 51.44C84.592 52.3967 85 53.5833 85 55C85 56.4167 84.592 57.6033 83.776 58.56C82.9628 59.52 81.9542 60 80.75 60H4.25ZM4.25 35C3.04583 35 2.03717 34.52 1.224 33.56C0.408 32.6033 0 31.4167 0 30C0 28.5833 0.408 27.395 1.224 26.435C2.03717 25.4783 3.04583 25 4.25 25H80.75C81.9542 25 82.9628 25.4783 83.776 26.435C84.592 27.395 85 28.5833 85 30C85 31.4167 84.592 32.6033 83.776 33.56C82.9628 34.52 81.9542 35 80.75 35H4.25ZM4.25 10C3.04583 10 2.03717 9.52167 1.224 8.565C0.408 7.605 0 6.41667 0 5C0 3.58333 0.408 2.395 1.224 1.435C2.03717 0.478334 3.04583 0 4.25 0H80.75C81.9542 0 82.9628 0.478334 83.776 1.435C84.592 2.395 85 3.58333 85 5C85 6.41667 84.592 7.605 83.776 8.565C82.9628 9.52167 81.9542 10 80.75 10H4.25Z" fill="#CFCFCF"/>
</svg>
