<svg width="70" height="70" viewBox="0 0 70 70" fill="none" xmlns="http://www.w3.org/2000/svg">
<path d="M13.475 52.85C16.45 50.575 19.775 48.7807 23.45 47.467C27.125 46.1557 30.975 45.5 35 45.5C39.025 45.5 42.875 46.1557 46.55 47.467C50.225 48.7807 53.55 50.575 56.525 52.85C58.5667 50.4583 60.1568 47.7458 61.2955 44.7125C62.4318 41.6792 63 38.4417 63 35C63 27.2417 60.2735 20.6348 54.8205 15.1795C49.3652 9.7265 42.7583 7 35 7C27.2417 7 20.636 9.7265 15.183 15.1795C9.72767 20.6348 7 27.2417 7 35C7 38.4417 7.56933 41.6792 8.708 44.7125C9.84433 47.7458 11.4333 50.4583 13.475 52.85ZM35 38.5C31.5583 38.5 28.6557 37.3193 26.292 34.958C23.9307 32.5943 22.75 29.6917 22.75 26.25C22.75 22.8083 23.9307 19.9057 26.292 17.542C28.6557 15.1807 31.5583 14 35 14C38.4417 14 41.3443 15.1807 43.708 17.542C46.0693 19.9057 47.25 22.8083 47.25 26.25C47.25 29.6917 46.0693 32.5943 43.708 34.958C41.3443 37.3193 38.4417 38.5 35 38.5ZM35 70C30.1583 70 25.6083 69.0807 21.35 67.242C17.0917 65.4057 13.3875 62.9125 10.2375 59.7625C7.0875 56.6125 4.59433 52.9083 2.758 48.65C0.919334 44.3917 0 39.8417 0 35C0 30.1583 0.919334 25.6083 2.758 21.35C4.59433 17.0917 7.0875 13.3875 10.2375 10.2375C13.3875 7.0875 17.0917 4.59317 21.35 2.7545C25.6083 0.918166 30.1583 0 35 0C39.8417 0 44.3917 0.918166 48.65 2.7545C52.9083 4.59317 56.6125 7.0875 59.7625 10.2375C62.9125 13.3875 65.4057 17.0917 67.242 21.35C69.0807 25.6083 70 30.1583 70 35C70 39.8417 69.0807 44.3917 67.242 48.65C65.4057 52.9083 62.9125 56.6125 59.7625 59.7625C56.6125 62.9125 52.9083 65.4057 48.65 67.242C44.3917 69.0807 39.8417 70 35 70Z" fill="#CFCFCF"/>
</svg>
